<svg width="235" height="41" viewBox="0 0 235 41" fill="none" xmlns="http://www.w3.org/2000/svg">
<path d="M6.27714 26.215C6.24714 27.505 6.42714 28.675 6.90714 29.815C7.71714 31.675 9.12714 32.845 11.1371 33.235C12.2171 33.445 13.2971 33.325 14.3771 33.025C16.5071 32.455 18.3371 31.375 19.8971 29.815C20.8571 28.885 21.5771 27.745 22.1471 26.545C22.4171 26.035 22.5071 25.495 22.5671 24.955C22.5971 24.775 22.5371 24.625 22.4171 24.475C22.1771 24.205 22.2071 23.905 22.5371 23.665C22.8071 23.425 23.1371 23.335 23.4971 23.305C23.9471 23.245 24.3971 23.275 24.8171 23.425C25.3871 23.635 25.7171 24.055 25.8371 24.625C25.9571 25.075 25.8971 25.525 25.8371 25.975C25.7771 26.335 25.7171 26.695 25.6271 27.055C25.5071 27.715 25.2071 28.285 24.8171 28.825C24.0371 29.905 23.0771 30.805 22.0271 31.645C20.1071 33.175 17.9771 34.285 15.6071 34.915C14.1671 35.305 12.6971 35.515 11.1971 35.425C9.12714 35.335 7.20714 34.855 5.43714 33.775C3.45714 32.575 2.13714 30.895 1.44714 28.675C0.937139 27.055 0.817139 25.375 0.907139 23.695C0.997139 21.955 1.41714 20.305 1.98714 18.685C2.64714 16.855 3.51714 15.145 4.59714 13.555C5.28714 12.505 6.06714 11.515 6.93714 10.615C8.70714 8.72497 10.6571 7.13498 12.9071 5.84498C14.5571 4.91498 16.3271 4.31498 18.1871 4.01497C18.9971 3.89498 19.8071 3.80498 20.6171 3.83497C22.0271 3.89498 23.3771 4.16498 24.6071 4.85498C25.6571 5.42498 26.3771 6.23497 26.7071 7.40498C26.9471 8.30497 26.8571 9.20498 26.5271 10.075C26.0771 11.275 25.3271 12.325 24.3671 13.195C23.7371 13.735 23.0771 14.215 22.3271 14.605C21.6071 14.965 20.8571 15.115 20.0771 15.055C19.8371 15.025 19.6271 14.995 19.4171 14.875C19.2071 14.785 19.0271 14.665 19.0271 14.425C19.0271 14.185 19.2371 14.065 19.4471 14.005C19.9271 13.825 20.3771 13.555 20.7671 13.255C22.0871 12.205 22.9571 10.915 23.1671 9.20498C23.2871 8.51498 23.1671 7.82498 22.7771 7.22498C22.3271 6.47497 21.6371 6.14498 20.7971 6.08497C20.1371 6.05497 19.5371 6.20497 18.9371 6.41498C17.1971 6.95498 15.6671 7.85497 14.2871 9.02498C12.3971 10.675 10.9271 12.655 9.69714 14.845C8.91714 16.225 8.28714 17.665 7.74714 19.135C7.17714 20.755 6.72714 22.375 6.42714 24.055C6.30714 24.775 6.24714 25.525 6.27714 26.215ZM28.393 24.145C28.423 21.925 28.933 19.975 29.983 18.205C30.343 17.635 30.733 17.095 31.243 16.675C31.903 16.165 32.623 15.895 33.433 15.925C33.643 15.925 33.793 15.865 33.913 15.715C34.783 14.515 36.013 13.945 37.423 13.735C38.443 13.585 39.463 13.645 40.423 14.035C41.683 14.575 42.373 15.535 42.613 16.855C42.823 17.995 42.763 19.135 42.493 20.245C42.283 21.085 42.073 21.925 41.773 22.735C41.743 22.765 41.743 22.795 41.713 22.855C41.683 22.975 41.743 23.005 41.833 23.005C42.013 23.005 42.193 22.975 42.373 22.945C43.753 22.735 45.103 22.435 46.393 21.955C46.843 21.775 47.263 21.595 47.683 21.445C47.953 21.325 48.223 21.295 48.493 21.235C48.613 21.235 48.763 21.235 48.913 21.265C49.213 21.355 49.333 21.595 49.153 21.895C49.003 22.165 48.763 22.375 48.463 22.525C48.133 22.705 47.773 22.885 47.413 23.035C46.003 23.605 44.533 23.935 43.033 24.175C42.433 24.295 41.833 24.355 41.233 24.445C41.083 24.475 40.963 24.535 40.903 24.655C40.363 25.675 39.673 26.605 38.893 27.445C37.873 28.525 36.703 29.425 35.263 29.845C33.493 30.325 31.843 30.085 30.373 29.005C29.653 28.465 29.233 27.745 28.903 26.935C28.543 25.975 28.423 24.985 28.393 24.145ZM33.193 21.565C33.103 22.075 33.073 22.495 33.043 22.915C32.983 24.085 33.133 25.195 33.433 26.335C33.553 26.785 33.703 27.265 33.943 27.685C34.093 27.925 34.123 27.925 34.363 27.805C35.263 27.325 36.013 26.635 36.643 25.855C36.943 25.465 37.243 25.075 37.483 24.655C37.573 24.475 37.573 24.445 37.393 24.385C37.213 24.355 37.033 24.325 36.823 24.265C35.683 23.905 34.663 23.335 33.823 22.405C33.613 22.165 33.433 21.895 33.193 21.565ZM36.853 19.885C36.853 19.975 36.853 20.065 36.853 20.155C36.883 20.845 37.093 21.475 37.483 22.045C37.693 22.315 37.933 22.525 38.233 22.675C38.353 22.765 38.443 22.735 38.503 22.585C38.533 22.465 38.593 22.315 38.653 22.165C38.863 21.535 39.013 20.875 39.163 20.215C39.283 19.465 39.403 18.685 39.283 17.875C39.193 17.365 39.103 16.855 38.833 16.375C38.773 16.225 38.653 16.105 38.533 15.985C38.443 15.895 38.353 15.895 38.263 15.985C38.173 16.075 38.083 16.165 37.993 16.255C37.213 17.335 36.943 18.595 36.853 19.885ZM52.4188 19.705C52.4788 19.705 52.5088 19.645 52.5388 19.615C53.4988 18.415 54.5488 17.305 55.6288 16.225C56.5888 15.295 57.6688 14.545 58.9288 14.125C59.7988 13.825 60.6988 13.765 61.5688 14.035C61.9588 14.125 62.2888 14.305 62.5888 14.575C62.9188 14.875 63.0088 15.295 62.9788 15.745C62.9488 16.435 62.7688 17.125 62.5588 17.785C62.1988 18.925 61.7188 19.975 61.2688 21.055C60.7888 22.225 60.3088 23.395 59.8588 24.595C59.5288 25.435 59.3188 26.305 59.1688 27.205C59.1388 27.385 59.1088 27.565 59.1388 27.745C59.2888 27.775 59.3488 27.685 59.4388 27.625C59.9788 27.175 60.4888 26.665 60.9988 26.125C62.1388 24.835 63.2488 23.545 64.3888 22.255C64.6288 21.955 64.8988 21.655 65.2588 21.445C65.4988 21.325 65.7388 21.205 66.0088 21.205C66.3388 21.205 66.4888 21.385 66.3688 21.715C66.3088 21.895 66.1888 22.075 66.0688 22.225C65.1688 23.365 64.2388 24.505 63.2488 25.615C62.4988 26.455 61.7488 27.295 61.0588 28.165C60.6988 28.585 60.3388 28.975 59.8888 29.305C58.9288 29.965 57.5188 29.965 56.5888 29.215C55.9288 28.675 55.5688 27.955 55.5088 27.085C55.4788 25.705 55.7188 24.355 56.1388 23.035C56.6488 21.505 57.1288 19.945 57.7588 18.445C57.9088 18.145 57.9988 17.785 58.1188 17.455C58.1488 17.365 58.2088 17.305 58.1788 17.185C58.0588 17.155 57.9988 17.275 57.9388 17.305C56.6188 18.535 55.4488 19.855 54.3388 21.265C52.9588 23.035 51.6388 24.865 50.2888 26.695C49.8388 27.295 49.3888 27.925 48.9688 28.555C48.2788 29.545 47.2588 29.635 46.4188 29.455C45.6688 29.275 45.3088 28.765 45.3688 27.955C45.4588 26.815 45.6988 25.705 46.0588 24.625C46.8988 21.895 47.8288 19.195 48.8788 16.525C49.0888 16.015 49.3288 15.475 49.5688 14.965C49.7188 14.665 49.9288 14.425 50.2288 14.305C51.2788 13.825 52.2988 13.825 53.3488 14.305C53.4988 14.365 53.6188 14.455 53.7088 14.545C53.9188 14.755 54.0088 14.995 53.9788 15.265C53.9188 15.775 53.7388 16.225 53.5588 16.675C53.1688 17.635 52.8388 18.655 52.4188 19.585C52.3888 19.645 52.3588 19.675 52.4188 19.705ZM76.3506 15.775C76.5006 15.655 76.5006 15.535 76.5606 15.445C76.9506 14.425 77.7306 13.975 78.8106 13.945C79.2606 13.915 79.7106 13.945 80.1606 14.125C80.2206 14.155 80.3106 14.155 80.4006 14.215C80.9406 14.455 81.1206 14.815 81.0306 15.415C80.9106 16.045 80.7606 16.675 80.5506 17.275C80.0706 18.835 79.4706 20.365 78.8706 21.895C78.6906 22.405 78.5106 22.945 78.3006 23.455C78.3006 23.515 78.2406 23.575 78.3006 23.665C78.3906 23.665 78.4806 23.575 78.5706 23.515C79.8606 22.765 81.1506 21.955 82.5006 21.265C82.8306 21.085 83.1906 20.935 83.5806 20.875C83.7906 20.845 83.9706 20.875 84.1806 20.935C84.4506 21.055 84.5106 21.265 84.3306 21.505C84.2106 21.655 84.0606 21.775 83.8806 21.865C82.0206 23.065 80.1306 24.175 78.2406 25.315C77.4906 25.735 77.4906 25.735 77.1906 26.545C76.4706 28.465 75.8406 30.445 75.1806 32.395C74.5806 34.165 73.9506 35.905 73.2306 37.615C72.9906 38.185 72.7206 38.725 72.3006 39.205C71.1606 40.615 69.3006 40.765 67.9506 40.165C67.2906 39.865 66.7806 39.445 66.3906 38.845C65.8206 37.975 65.3406 37.105 65.0706 36.115C64.7106 34.825 64.9506 33.625 65.7306 32.545C66.2406 31.855 66.8406 31.255 67.4706 30.715C68.7906 29.545 70.2606 28.555 71.7006 27.595C71.8806 27.475 72.0306 27.325 72.0906 27.115C72.3006 26.485 72.5106 25.885 72.7206 25.255C72.7506 25.165 72.8106 25.075 72.8106 24.985C72.6906 25.015 72.6606 25.105 72.6306 25.165C72.2406 25.705 71.8506 26.245 71.4906 26.785C71.1006 27.325 70.6806 27.805 70.2006 28.285C68.8206 29.635 66.6306 29.545 65.4006 28.795C64.6806 28.375 64.2606 27.715 63.9606 26.965C63.7806 26.545 63.7206 26.065 63.6906 25.585C63.6306 24.325 63.8406 23.125 64.2006 21.925C64.4706 20.995 64.7706 20.095 65.1906 19.255C65.6406 18.355 66.2406 17.605 66.8406 16.825C67.2906 16.285 67.7706 15.775 68.3406 15.355C69.2106 14.695 70.1706 14.305 71.2206 14.155C72.2406 13.975 73.2606 14.005 74.2506 14.245C75.1206 14.455 75.8106 14.905 76.2906 15.685C76.2906 15.715 76.3206 15.715 76.3506 15.775ZM74.9106 18.415C74.6406 18.235 74.4606 18.055 74.3106 17.815C74.2206 17.605 74.1006 17.395 74.0106 17.215C73.8606 16.855 73.6506 16.555 73.4406 16.255C73.2006 15.955 72.9306 15.955 72.6306 16.045C72.4206 16.135 72.2106 16.255 72.0606 16.405C71.5506 16.855 71.0406 17.365 70.6806 17.965C69.8406 19.375 69.2106 20.905 68.7906 22.495C68.4906 23.635 68.3106 24.745 68.1906 25.915C68.1606 26.275 68.1606 26.635 68.2206 26.995C68.2206 27.085 68.2206 27.205 68.3106 27.235C68.4306 27.295 68.4906 27.175 68.5506 27.115C68.9706 26.695 69.3606 26.245 69.7206 25.765C70.9206 24.055 72.0606 22.285 73.2006 20.515C73.6806 19.765 74.1006 18.925 74.9106 18.415ZM71.0706 30.415C70.9206 30.415 70.8906 30.475 70.8306 30.505C70.5906 30.745 70.3206 30.955 70.0506 31.195C69.3906 31.825 68.7306 32.425 68.2206 33.175C67.5606 34.135 67.5306 35.125 67.9506 36.175C68.1606 36.685 68.4606 37.165 68.7606 37.645C68.7906 37.705 68.8206 37.825 68.9706 37.825C69.7206 35.395 70.3506 32.905 71.0706 30.415ZM89.072 15.685C89.342 15.565 89.552 15.445 89.762 15.325C90.722 14.815 91.742 14.455 92.852 14.425C94.112 14.365 95.312 14.635 96.242 15.565C96.902 16.195 97.202 17.035 97.082 17.935C96.932 19.045 96.332 19.945 95.582 20.695C95.462 20.815 95.342 20.905 95.252 20.995C94.262 21.835 93.182 21.895 92.042 21.475C91.832 21.415 91.652 21.295 91.532 21.115C91.292 20.845 91.292 20.605 91.502 20.305C91.562 20.215 91.622 20.155 91.682 20.095C92.012 19.765 92.192 19.345 92.252 18.895C92.372 18.355 92.462 17.815 92.492 17.245C92.492 17.125 92.492 17.005 92.462 16.885C92.432 16.765 92.372 16.735 92.252 16.765C92.072 16.855 91.892 16.945 91.712 17.035C91.142 17.335 90.602 17.665 90.062 18.085C89.282 18.685 88.532 19.315 87.752 19.945C87.572 20.095 87.452 20.305 87.362 20.515C86.702 22.345 85.922 24.115 85.232 26.215C84.842 27.595 84.512 28.225 84.242 28.855C83.882 29.665 83.252 29.995 82.412 29.995C82.022 29.965 81.632 29.965 81.272 29.815C81.152 29.785 81.002 29.725 80.882 29.665C80.342 29.365 80.132 28.945 80.312 28.315C80.612 27.295 81.092 25.555 81.392 24.535C81.962 22.315 82.622 20.395 83.312 18.505C83.672 17.455 84.062 16.405 84.542 15.385C84.692 15.085 84.842 14.785 85.052 14.545C85.292 14.215 85.592 14.035 85.952 13.915C86.792 13.705 87.572 13.765 88.352 14.125C88.502 14.215 88.652 14.305 88.772 14.425C88.982 14.635 89.102 14.875 89.102 15.175C89.072 15.325 89.042 15.475 89.072 15.685ZM106.053 23.695C105.783 24.085 105.513 24.505 105.243 24.895C104.643 25.735 104.073 26.545 103.473 27.385C103.203 27.745 102.873 28.105 102.513 28.405C101.943 28.885 101.283 29.185 100.533 29.275C99.8427 29.365 99.1527 29.335 98.4627 29.095C97.2927 28.705 96.6627 27.805 96.3027 26.695C96.0927 26.035 96.0627 25.345 96.1227 24.655C96.2427 22.885 96.7827 21.205 97.4727 19.585C97.8327 18.775 98.3127 18.055 98.8527 17.365C99.3627 16.705 99.9027 16.075 100.533 15.535C101.463 14.755 102.543 14.335 103.713 14.125C104.643 14.005 105.573 14.035 106.473 14.185C107.253 14.335 107.913 14.665 108.423 15.265C108.483 15.325 108.513 15.385 108.573 15.445C108.723 15.625 108.753 15.595 108.873 15.415C108.963 15.265 109.053 15.115 109.143 14.995C109.323 14.725 109.503 14.485 109.773 14.305C110.403 13.885 111.123 13.825 111.843 13.915C112.203 13.945 112.503 14.065 112.773 14.245C113.073 14.455 113.193 14.725 113.193 15.055C113.193 15.355 113.133 15.625 113.043 15.865C112.893 16.255 112.743 16.645 112.593 17.005C112.293 17.845 111.963 18.685 111.633 19.525C111.453 19.945 111.363 20.365 111.243 20.785C110.973 21.805 110.553 22.735 110.283 23.755C109.953 24.835 109.713 25.945 109.743 27.085C109.743 27.235 109.773 27.415 109.803 27.595C109.833 27.745 109.893 27.775 110.013 27.685C110.193 27.595 110.313 27.475 110.433 27.355C111.123 26.725 111.693 25.975 112.233 25.225C113.223 23.935 114.213 22.615 115.203 21.325C115.503 20.935 115.833 20.665 116.283 20.545C116.493 20.485 116.673 20.455 116.853 20.605C117.003 20.815 116.973 21.025 116.883 21.205C116.733 21.595 116.493 21.895 116.283 22.225C115.233 23.755 114.093 25.195 112.983 26.665C112.563 27.235 112.173 27.835 111.663 28.315C110.733 29.215 109.593 29.515 108.333 29.185C107.223 28.885 106.533 28.135 106.203 27.025C105.993 26.335 105.993 25.585 106.053 24.865C106.083 24.475 106.083 24.085 106.113 23.725C106.113 23.695 106.083 23.695 106.053 23.695ZM107.373 18.385C106.893 18.175 106.743 17.815 106.563 17.455C106.413 17.125 106.263 16.825 106.083 16.555C105.633 15.895 105.303 15.835 104.613 16.285C104.553 16.345 104.493 16.375 104.433 16.435C103.923 16.885 103.473 17.395 103.113 17.965C102.513 18.985 102.003 20.065 101.613 21.175C101.103 22.615 100.833 24.085 100.683 25.585C100.623 26.035 100.533 26.485 100.653 26.935C100.683 27.055 100.623 27.205 100.773 27.235C100.893 27.295 100.953 27.145 101.043 27.055C101.673 26.455 102.183 25.735 102.693 25.015C103.773 23.425 104.823 21.805 105.873 20.155C106.263 19.525 106.623 18.865 107.373 18.385ZM117.88 27.685C118.06 27.655 118.15 27.565 118.24 27.475C118.96 26.815 119.56 26.065 120.16 25.315C121.06 24.235 121.96 23.185 122.89 22.165C123.13 21.925 123.34 21.655 123.61 21.445C123.82 21.295 124.06 21.175 124.33 21.175C124.69 21.145 124.93 21.415 124.84 21.775C124.78 22.015 124.66 22.225 124.51 22.405C124 23.095 123.46 23.755 122.92 24.445C121.93 25.705 120.85 26.935 119.86 28.195C119.41 28.765 118.87 29.275 118.18 29.575C117.31 29.965 116.44 29.995 115.54 29.635C115.03 29.425 114.67 29.065 114.4 28.555C113.89 27.565 113.74 26.485 113.83 25.375C114.01 23.635 114.4 21.985 114.91 20.335C115.24 19.285 115.42 18.205 115.72 17.155C116.74 13.585 117.25 11.905 117.73 10.225C117.85 9.83498 117.85 9.89498 117.43 9.89498C104.71 10.105 103.57 10.435 102.46 10.885C102.04 11.065 101.62 11.275 101.26 11.545C101.05 11.695 101.05 11.725 101.23 11.905C101.44 12.115 101.41 12.235 101.2 12.415C100.99 12.595 100.72 12.655 100.45 12.655C99.6404 12.565 98.9504 12.235 98.4104 11.635C97.9304 11.095 97.8704 10.585 98.2004 9.98498C98.4704 9.47498 98.8604 9.11497 99.3104 8.78498C100 8.30497 100.78 7.97498 101.56 7.73497C102.67 7.43497 103.78 7.28498 104.92 7.19497C105.58 7.16497 106.24 7.16497 118.48 7.16497C118.72 7.16497 118.87 7.10498 118.96 6.83498C119.26 6.11498 120.94 2.84497 120.94 2.84497C121.12 2.51498 121.36 2.18497 121.63 1.91497C121.87 1.67498 122.11 1.52497 122.41 1.43498C123.07 1.25497 123.76 1.25497 124.39 1.49497C125.05 1.70498 125.29 2.12498 125.2 2.78498C125.11 3.47498 124.9 4.13497 124.63 4.76498L124 6.38498C123.91 6.59497 123.82 6.80498 123.76 6.98498C123.64 7.31497 123.64 7.34498 124 7.37498C124.3 7.40498 124.57 7.46497 124.87 7.46497C135.85 7.43497 137.11 7.64498 138.31 8.06498C138.85 8.27497 139.39 8.54497 139.87 8.90498C140.08 9.08498 140.29 9.29498 140.44 9.53497C140.74 10.075 140.5 10.525 139.87 10.555C139.57 10.585 139.27 10.525 139 10.375C138.19 9.86498 137.26 9.80497 136.36 9.68497C125.53 9.74498 124.42 9.68497 123.34 9.62498C122.74 9.59498 122.83 9.56498 122.65 10.075C121.57 13.285 120.04 18.355 119.05 21.565C118.72 22.705 118.36 23.815 118.15 24.955C118.03 25.705 117.94 26.425 117.88 27.145C117.85 27.325 117.85 27.505 117.88 27.685ZM135.338 27.265C135.488 27.205 135.578 27.115 135.638 27.025C136.868 25.825 138.008 24.535 139.208 23.305C139.748 22.735 140.258 22.165 140.858 21.685C141.128 21.445 141.428 21.265 141.758 21.175C141.848 21.175 141.908 21.145 141.998 21.145C142.328 21.115 142.538 21.355 142.448 21.685C142.388 21.865 142.298 22.015 142.178 22.165C141.968 22.405 141.758 22.675 141.518 22.945C140.108 24.505 138.698 26.065 137.198 27.565C136.718 28.015 136.298 28.525 135.758 28.975C135.338 29.305 134.858 29.545 134.288 29.605C133.298 29.725 132.338 29.245 131.858 28.375C131.558 27.835 131.438 27.265 131.408 26.665C131.378 26.155 131.438 25.645 131.498 25.135C131.528 25.045 131.558 24.925 131.498 24.835C131.378 24.835 131.348 24.925 131.288 25.015C130.778 25.555 130.298 26.125 129.818 26.695C129.008 27.595 128.168 28.435 127.148 29.095C126.218 29.695 125.198 29.785 124.148 29.485C123.338 29.245 122.798 28.705 122.498 27.925C122.288 27.325 122.198 26.725 122.108 26.125C122.018 25.195 122.168 24.325 122.348 23.455C122.678 21.865 123.218 20.335 123.818 18.835C124.298 17.695 124.748 16.555 125.198 15.415C125.258 15.235 125.378 15.085 125.438 14.905C125.798 14.065 126.458 13.645 127.328 13.525C127.838 13.465 128.318 13.465 128.798 13.555C129.068 13.615 129.338 13.705 129.578 13.855C130.118 14.125 130.298 14.545 130.178 15.115C129.998 15.865 129.758 16.615 129.488 17.335C128.978 18.625 128.438 19.855 127.958 21.145C127.358 22.765 126.818 24.385 126.488 26.065C126.428 26.305 126.368 26.545 126.368 26.815C126.518 26.785 126.578 26.695 126.638 26.605C128.288 24.955 129.758 23.185 131.288 21.415C131.858 20.785 132.428 20.125 132.998 19.495C133.148 19.315 133.268 19.135 133.328 18.955C133.838 17.545 134.468 16.225 135.068 14.905C135.458 14.035 136.118 13.615 137.018 13.495C137.678 13.405 138.308 13.465 138.938 13.675C139.058 13.735 139.208 13.795 139.328 13.885C139.808 14.185 139.928 14.485 139.778 15.025C139.598 15.805 139.358 16.585 139.028 17.335C138.068 19.645 137.108 21.955 136.268 24.295C135.938 25.165 135.668 26.035 135.428 26.935C135.398 27.025 135.368 27.115 135.338 27.265ZM143.692 27.685C143.962 27.505 144.172 27.295 144.352 27.115C144.892 26.605 145.342 26.005 145.822 25.435C146.812 24.235 147.832 23.065 148.882 21.895C149.062 21.685 149.242 21.505 149.482 21.355C149.662 21.235 149.872 21.145 150.082 21.115C150.472 21.055 150.742 21.355 150.652 21.715C150.592 21.925 150.502 22.105 150.382 22.255C149.812 23.035 149.242 23.785 148.642 24.505C147.592 25.795 146.542 27.085 145.462 28.375C145.012 28.915 144.442 29.395 143.722 29.635C142.702 29.965 141.742 29.905 140.842 29.275C140.482 29.035 140.272 28.705 140.122 28.345C139.672 27.385 139.552 26.365 139.642 25.315C139.792 23.725 140.152 22.165 140.602 20.635C140.992 19.405 141.232 18.145 141.592 16.915C142.162 14.845 142.732 12.745 143.452 10.705C143.872 9.44498 144.412 8.24498 144.892 7.01497C145.312 5.90497 145.792 4.85498 146.302 3.80498C146.632 3.14497 146.992 2.48497 147.352 1.85498C147.502 1.61497 147.682 1.37497 147.892 1.13498C148.132 0.924975 148.372 0.744975 148.672 0.654975C149.362 0.444975 150.052 0.444975 150.712 0.684974C151.342 0.924975 151.612 1.34497 151.522 2.00498C151.462 2.39498 151.342 2.78498 151.222 3.14497C150.862 4.37497 150.352 5.51497 149.872 6.65498C149.092 8.54497 148.402 10.435 147.772 12.325C146.722 15.505 145.702 18.685 144.742 21.895C144.352 23.125 144.022 24.385 143.842 25.645C143.752 26.185 143.722 26.725 143.692 27.235C143.662 27.385 143.662 27.505 143.692 27.685ZM157.764 23.695C157.494 24.085 157.224 24.505 156.954 24.895C156.354 25.735 155.784 26.545 155.184 27.385C154.914 27.745 154.584 28.105 154.224 28.405C153.654 28.885 152.994 29.185 152.244 29.275C151.554 29.365 150.864 29.335 150.174 29.095C149.004 28.705 148.374 27.805 148.014 26.695C147.804 26.035 147.774 25.345 147.834 24.655C147.954 22.885 148.494 21.205 149.184 19.585C149.544 18.775 150.024 18.055 150.564 17.365C151.074 16.705 151.614 16.075 152.244 15.535C153.174 14.755 154.254 14.335 155.424 14.125C156.354 14.005 157.284 14.035 158.184 14.185C158.964 14.335 159.624 14.665 160.134 15.265C160.194 15.325 160.224 15.385 160.284 15.445C160.434 15.625 160.464 15.595 160.584 15.415C160.674 15.265 160.764 15.115 160.854 14.995C161.034 14.725 161.214 14.485 161.484 14.305C162.114 13.885 162.834 13.825 163.554 13.915C163.914 13.945 164.214 14.065 164.484 14.245C164.784 14.455 164.904 14.725 164.904 15.055C164.904 15.355 164.844 15.625 164.754 15.865C164.604 16.255 164.454 16.645 164.304 17.005C164.004 17.845 163.674 18.685 163.344 19.525C163.164 19.945 163.074 20.365 162.954 20.785C162.684 21.805 162.264 22.735 161.994 23.755C161.664 24.835 161.424 25.945 161.454 27.085C161.454 27.235 161.484 27.415 161.514 27.595C161.544 27.745 161.604 27.775 161.724 27.685C161.904 27.595 162.024 27.475 162.144 27.355C162.834 26.725 163.404 25.975 163.944 25.225C164.934 23.935 165.924 22.615 166.914 21.325C167.214 20.935 167.544 20.665 167.994 20.545C168.204 20.485 168.384 20.455 168.564 20.605C168.714 20.815 168.684 21.025 168.594 21.205C168.444 21.595 168.204 21.895 167.994 22.225C166.944 23.755 165.804 25.195 164.694 26.665C164.274 27.235 163.884 27.835 163.374 28.315C162.444 29.215 161.304 29.515 160.044 29.185C158.934 28.885 158.244 28.135 157.914 27.025C157.704 26.335 157.704 25.585 157.764 24.865C157.794 24.475 157.794 24.085 157.824 23.725C157.824 23.695 157.794 23.695 157.764 23.695ZM159.084 18.385C158.604 18.175 158.454 17.815 158.274 17.455C158.124 17.125 157.974 16.825 157.794 16.555C157.344 15.895 157.014 15.835 156.324 16.285C156.264 16.345 156.204 16.375 156.144 16.435C155.634 16.885 155.184 17.395 154.824 17.965C154.224 18.985 153.714 20.065 153.324 21.175C152.814 22.615 152.544 24.085 152.394 25.585C152.334 26.035 152.244 26.485 152.364 26.935C152.394 27.055 152.334 27.205 152.484 27.235C152.604 27.295 152.664 27.145 152.754 27.055C153.384 26.455 153.894 25.735 154.404 25.015C155.484 23.425 156.534 21.805 157.584 20.155C157.974 19.525 158.334 18.865 159.084 18.385ZM169.592 27.685C169.772 27.655 169.862 27.565 169.952 27.475C170.672 26.815 171.272 26.065 171.872 25.315C172.772 24.235 173.672 23.185 174.602 22.165C174.842 21.925 175.052 21.655 175.322 21.445C175.532 21.295 175.772 21.175 176.042 21.175C176.402 21.145 176.642 21.415 176.552 21.775C176.492 22.015 176.372 22.225 176.222 22.405C175.712 23.095 175.172 23.755 174.632 24.445C173.642 25.705 172.562 26.935 171.572 28.195C171.122 28.765 170.582 29.275 169.892 29.575C169.022 29.965 168.152 29.995 167.252 29.635C166.742 29.425 166.382 29.065 166.112 28.555C165.602 27.565 165.452 26.485 165.542 25.375C165.722 23.635 166.112 21.985 166.622 20.335C166.952 19.285 167.132 18.205 167.432 17.155C168.452 13.585 168.962 11.905 169.442 10.225C169.562 9.83498 169.562 9.89498 169.142 9.89498C156.422 10.105 155.282 10.435 154.172 10.885C153.752 11.065 153.332 11.275 152.972 11.545C152.762 11.695 152.762 11.725 152.942 11.905C153.152 12.115 153.122 12.235 152.912 12.415C152.702 12.595 152.432 12.655 152.162 12.655C151.352 12.565 150.662 12.235 150.122 11.635C149.642 11.095 149.582 10.585 149.912 9.98498C150.182 9.47498 150.572 9.11497 151.022 8.78498C151.712 8.30497 152.492 7.97498 153.272 7.73497C154.382 7.43497 155.492 7.28498 156.632 7.19497C157.292 7.16497 157.952 7.16497 170.192 7.16497C170.432 7.16497 170.582 7.10498 170.672 6.83498C170.972 6.11498 172.652 2.84497 172.652 2.84497C172.832 2.51498 173.072 2.18497 173.342 1.91497C173.582 1.67498 173.822 1.52497 174.122 1.43498C174.782 1.25497 175.472 1.25497 176.102 1.49497C176.762 1.70498 177.002 2.12498 176.912 2.78498C176.822 3.47498 176.612 4.13497 176.342 4.76498L175.712 6.38498C175.622 6.59497 175.532 6.80498 175.472 6.98498C175.352 7.31497 175.352 7.34498 175.712 7.37498C176.012 7.40498 176.282 7.46497 176.582 7.46497C187.562 7.43497 188.822 7.64498 190.022 8.06498C190.562 8.27497 191.102 8.54497 191.582 8.90498C191.792 9.08498 192.002 9.29498 192.152 9.53497C192.452 10.075 192.212 10.525 191.582 10.555C191.282 10.585 190.982 10.525 190.712 10.375C189.902 9.86498 188.972 9.80497 188.072 9.68497C177.242 9.74498 176.132 9.68497 175.052 9.62498C174.452 9.59498 174.542 9.56498 174.362 10.075C173.282 13.285 171.752 18.355 170.762 21.565C170.432 22.705 170.072 23.815 169.862 24.955C169.742 25.705 169.652 26.425 169.592 27.145C169.562 27.325 169.562 27.505 169.592 27.685ZM174.029 25.915C174.059 24.505 174.119 23.035 174.509 21.655C174.809 20.635 175.109 19.585 175.499 18.595C175.949 17.455 176.549 16.375 177.239 15.355C177.389 15.175 177.539 15.025 177.719 14.905C178.619 14.365 179.579 14.275 180.539 14.725C181.079 14.965 181.229 15.325 181.139 15.895C181.079 16.315 180.929 16.705 180.779 17.095C180.449 17.965 180.119 18.805 179.759 19.645C179.609 20.065 179.429 20.515 179.309 20.995C179.009 22.135 178.559 23.215 178.229 24.325C177.899 25.495 177.659 26.665 177.719 27.895C177.749 28.045 177.689 28.225 177.839 28.315C177.989 28.375 178.109 28.195 178.199 28.105C178.709 27.655 179.189 27.175 179.579 26.635C180.689 25.195 181.769 23.725 182.879 22.285C183.089 22.015 183.299 21.745 183.539 21.505C183.749 21.295 184.019 21.175 184.289 21.115C184.499 21.055 184.679 21.055 184.829 21.205C184.979 21.385 184.949 21.565 184.859 21.775C184.799 21.955 184.679 22.135 184.589 22.285C183.719 23.635 182.729 24.895 181.769 26.155C181.229 26.875 180.659 27.625 180.119 28.375C179.879 28.675 179.609 28.945 179.309 29.185C178.409 29.875 177.359 30.055 176.279 29.755C175.109 29.455 174.449 28.615 174.149 27.475C174.089 27.265 174.029 27.055 174.029 26.845C173.999 26.545 174.029 26.245 174.029 25.915ZM178.859 11.425C178.859 10.945 178.949 10.525 179.099 10.135C179.489 8.93498 180.059 7.85497 180.809 6.83498C181.529 5.84498 182.669 5.57498 183.749 6.14498C183.869 6.20497 183.989 6.29498 184.109 6.38498C184.259 6.56498 184.319 6.74497 184.289 6.98498C184.199 7.34498 184.049 7.67498 183.899 8.03497C183.449 8.99497 183.029 9.98498 182.639 11.005C182.429 11.545 182.159 12.055 181.829 12.565C181.709 12.775 181.529 12.925 181.259 12.985C180.629 13.195 180.029 13.105 179.459 12.805C179.189 12.685 179.009 12.475 178.949 12.175C178.919 11.905 178.859 11.635 178.859 11.425ZM182.311 24.145C182.341 21.925 182.851 19.975 183.901 18.205C184.261 17.635 184.651 17.095 185.161 16.675C185.821 16.165 186.541 15.895 187.351 15.925C187.561 15.925 187.711 15.865 187.831 15.715C188.701 14.515 189.931 13.945 191.341 13.735C192.361 13.585 193.381 13.645 194.341 14.035C195.601 14.575 196.291 15.535 196.531 16.855C196.741 17.995 196.681 19.135 196.411 20.245C196.201 21.085 195.991 21.925 195.691 22.735C195.661 22.765 195.661 22.795 195.631 22.855C195.601 22.975 195.661 23.005 195.751 23.005C195.931 23.005 196.111 22.975 196.291 22.945C197.671 22.735 199.021 22.435 200.311 21.955C200.761 21.775 201.181 21.595 201.601 21.445C201.871 21.325 202.141 21.295 202.411 21.235C202.531 21.235 202.681 21.235 202.831 21.265C203.131 21.355 203.251 21.595 203.071 21.895C202.921 22.165 202.681 22.375 202.381 22.525C202.051 22.705 201.691 22.885 201.331 23.035C199.921 23.605 198.451 23.935 196.951 24.175C196.351 24.295 195.751 24.355 195.151 24.445C195.001 24.475 194.881 24.535 194.821 24.655C194.281 25.675 193.591 26.605 192.811 27.445C191.791 28.525 190.621 29.425 189.181 29.845C187.411 30.325 185.761 30.085 184.291 29.005C183.571 28.465 183.151 27.745 182.821 26.935C182.461 25.975 182.341 24.985 182.311 24.145ZM187.111 21.565C187.021 22.075 186.991 22.495 186.961 22.915C186.901 24.085 187.051 25.195 187.351 26.335C187.471 26.785 187.621 27.265 187.861 27.685C188.011 27.925 188.041 27.925 188.281 27.805C189.181 27.325 189.931 26.635 190.561 25.855C190.861 25.465 191.161 25.075 191.401 24.655C191.491 24.475 191.491 24.445 191.311 24.385C191.131 24.355 190.951 24.325 190.741 24.265C189.601 23.905 188.581 23.335 187.741 22.405C187.531 22.165 187.351 21.895 187.111 21.565ZM190.771 19.885C190.771 19.975 190.771 20.065 190.771 20.155C190.801 20.845 191.011 21.475 191.401 22.045C191.611 22.315 191.851 22.525 192.151 22.675C192.271 22.765 192.361 22.735 192.421 22.585C192.451 22.465 192.511 22.315 192.571 22.165C192.781 21.535 192.931 20.875 193.081 20.215C193.201 19.465 193.321 18.685 193.201 17.875C193.111 17.365 193.021 16.855 192.751 16.375C192.691 16.225 192.571 16.105 192.451 15.985C192.361 15.895 192.271 15.895 192.181 15.985C192.091 16.075 192.001 16.165 191.911 16.255C191.131 17.335 190.861 18.595 190.771 19.885ZM206.336 19.705C206.396 19.705 206.426 19.645 206.456 19.615C207.416 18.415 208.466 17.305 209.546 16.225C210.506 15.295 211.586 14.545 212.846 14.125C213.716 13.825 214.616 13.765 215.486 14.035C215.876 14.125 216.206 14.305 216.506 14.575C216.836 14.875 216.926 15.295 216.896 15.745C216.866 16.435 216.686 17.125 216.476 17.785C216.116 18.925 215.636 19.975 215.186 21.055C214.706 22.225 214.226 23.395 213.776 24.595C213.446 25.435 213.236 26.305 213.086 27.205C213.056 27.385 213.026 27.565 213.056 27.745C213.206 27.775 213.266 27.685 213.356 27.625C213.896 27.175 214.406 26.665 214.916 26.125C216.056 24.835 217.166 23.545 218.306 22.255C218.546 21.955 218.816 21.655 219.176 21.445C219.416 21.325 219.656 21.205 219.926 21.205C220.256 21.205 220.406 21.385 220.286 21.715C220.226 21.895 220.106 22.075 219.986 22.225C219.086 23.365 218.156 24.505 217.166 25.615C216.416 26.455 215.666 27.295 214.976 28.165C214.616 28.585 214.256 28.975 213.806 29.305C212.846 29.965 211.436 29.965 210.506 29.215C209.846 28.675 209.486 27.955 209.426 27.085C209.396 25.705 209.636 24.355 210.056 23.035C210.566 21.505 211.046 19.945 211.676 18.445C211.826 18.145 211.916 17.785 212.036 17.455C212.066 17.365 212.126 17.305 212.096 17.185C211.976 17.155 211.916 17.275 211.856 17.305C210.536 18.535 209.366 19.855 208.256 21.265C206.876 23.035 205.556 24.865 204.206 26.695C203.756 27.295 203.306 27.925 202.886 28.555C202.196 29.545 201.176 29.635 200.336 29.455C199.586 29.275 199.226 28.765 199.286 27.955C199.376 26.815 199.616 25.705 199.976 24.625C200.816 21.895 201.746 19.195 202.796 16.525C203.006 16.015 203.246 15.475 203.486 14.965C203.636 14.665 203.846 14.425 204.146 14.305C205.196 13.825 206.216 13.825 207.266 14.305C207.416 14.365 207.536 14.455 207.626 14.545C207.836 14.755 207.926 14.995 207.896 15.265C207.836 15.775 207.656 16.225 207.476 16.675C207.086 17.635 206.756 18.655 206.336 19.585C206.306 19.645 206.276 19.675 206.336 19.705ZM225.318 13.975C226.338 13.945 227.328 14.185 228.228 14.755C228.948 15.205 229.398 15.865 229.548 16.705C229.638 17.185 229.638 17.695 229.518 18.205C229.218 19.555 228.468 20.575 227.208 21.205C226.518 21.535 225.798 21.535 225.078 21.385C224.868 21.355 224.688 21.265 224.508 21.145C224.148 20.875 224.088 20.545 224.388 20.215C224.628 19.975 224.808 19.705 224.988 19.405C225.288 18.985 225.438 18.505 225.498 17.995C225.588 17.455 225.438 16.945 225.228 16.465C225.168 16.315 225.078 16.315 224.958 16.375C224.478 16.615 224.088 16.975 223.758 17.395C223.128 18.205 222.768 19.135 222.618 20.125C222.408 21.475 222.738 22.735 223.248 23.965C223.578 24.655 223.908 25.345 224.268 26.035C224.388 26.335 224.418 26.335 224.718 26.155C226.788 24.985 228.798 23.755 230.868 22.555C231.318 22.285 231.768 22.015 232.218 21.745C232.518 21.565 232.848 21.445 233.208 21.355C233.388 21.295 233.598 21.295 233.778 21.325C234.138 21.385 234.258 21.655 234.048 21.955C233.928 22.135 233.748 22.285 233.568 22.405C232.818 22.915 232.068 23.365 231.318 23.845C229.458 25.015 227.568 26.065 225.678 27.175C225.528 27.265 225.378 27.385 225.198 27.475C225.048 27.565 225.018 27.685 225.108 27.865C225.288 28.285 225.438 28.735 225.588 29.185C225.858 30.055 225.978 30.955 226.008 31.885C226.038 33.895 224.688 35.635 222.948 36.295C221.268 36.925 219.588 36.745 217.998 35.995C217.308 35.665 216.768 35.125 216.438 34.405C216.108 33.745 216.138 33.085 216.468 32.425C216.798 31.825 217.218 31.345 217.698 30.895C218.628 30.025 219.678 29.305 220.728 28.555C220.968 28.375 220.968 28.375 220.818 28.105C220.278 27.085 219.768 26.005 219.228 24.955C218.628 23.755 218.238 22.495 218.088 21.175C217.908 19.795 218.268 18.565 218.958 17.425C220.128 15.535 221.868 14.545 223.938 14.095C224.178 14.035 224.388 14.005 224.628 13.975C224.868 13.945 225.078 13.975 225.318 13.975ZM222.198 32.185C222.228 31.855 222.198 31.585 222.138 31.285C222.048 30.895 221.928 30.475 221.748 30.115C221.718 29.965 221.658 29.935 221.538 30.025C221.478 30.085 221.418 30.115 221.358 30.145C220.668 30.685 220.038 31.315 219.438 31.945C219.228 32.155 219.078 32.395 218.958 32.665C218.868 32.845 218.778 33.025 218.778 33.235C218.688 34.075 219.438 35.005 220.548 35.005C220.668 35.005 220.818 34.945 220.908 34.855C221.478 34.405 221.988 33.895 222.108 33.115C222.168 32.815 222.228 32.485 222.198 32.185Z" fill="url(#paint0_linear_20_36)"/>
<defs>
<linearGradient id="paint0_linear_20_36" x1="197.042" y1="7.58497" x2="147.146" y2="76.37" gradientUnits="userSpaceOnUse">
<stop stop-color="#F295BE"/>
<stop offset="1" stop-color="#63A7D4"/>
</linearGradient>
</defs>
</svg>
