<svg width="41" height="45" viewBox="0 0 41 45" fill="none" xmlns="http://www.w3.org/2000/svg">
<path fill-rule="evenodd" clip-rule="evenodd" d="M40.1723 9.01729C40.1723 7.03162 38.5626 5.42191 36.5769 5.42191H33.431C33.1827 5.42191 32.9815 5.22069 32.9815 4.97248V2.72537C32.9815 1.73253 32.1767 0.927673 31.1838 0.927673C30.191 0.927673 29.3861 1.73253 29.3861 2.72537V4.97248C29.3861 5.22069 29.1849 5.42191 28.9367 5.42191H22.6448C22.3966 5.42191 22.1954 5.22069 22.1954 4.97248V2.72537C22.1954 1.73253 21.3905 0.927673 20.3977 0.927673C19.4048 0.927673 18.6 1.73253 18.6 2.72537V4.97248C18.6 5.22069 18.3988 5.42191 18.1506 5.42191H11.8586C11.6104 5.42191 11.4092 5.22069 11.4092 4.97248V2.72537C11.4092 1.73253 10.6044 0.927673 9.61152 0.927673C8.61868 0.927673 7.81382 1.73253 7.81382 2.72537V4.97248C7.81382 5.22069 7.61261 5.42191 7.3644 5.42191H4.21843C2.23276 5.42191 0.623047 7.03162 0.623047 9.01729V40.4769C0.623047 42.4626 2.23276 44.0723 4.21843 44.0723H36.5769C38.5626 44.0723 40.1723 42.4626 40.1723 40.4769V9.01729ZM32.0827 19.8035C32.0827 18.8106 31.2778 18.0058 30.285 18.0058H10.5104C9.51752 18.0058 8.71267 18.8106 8.71267 19.8035C8.71267 20.7963 9.51752 21.6012 10.5104 21.6012H30.285C31.2778 21.6012 32.0827 20.7963 32.0827 19.8035ZM32.0827 26.9942C32.0827 26.0014 31.2778 25.1965 30.285 25.1965H10.5104C9.51752 25.1965 8.71267 26.0014 8.71267 26.9942C8.71267 27.9871 9.51752 28.7919 10.5104 28.7919H30.285C31.2778 28.7919 32.0827 27.9871 32.0827 26.9942ZM10.5104 32.3873H24.8919C25.8848 32.3873 26.6896 33.1922 26.6896 34.185C26.6896 35.1778 25.8848 35.9827 24.8919 35.9827H10.5104C9.51752 35.9827 8.71267 35.1778 8.71267 34.185C8.71267 33.1922 9.51752 32.3873 10.5104 32.3873ZM36.1275 40.4769C36.3757 40.4769 36.5769 40.2757 36.5769 40.0275L36.5697 9.46672C36.5697 9.21851 36.3685 9.01729 36.1203 9.01729H33.4238C33.1765 9.01729 32.9761 9.2177 32.9761 9.46492V10.815C32.9761 11.8078 32.1713 12.6127 31.1784 12.6127C30.1856 12.6127 29.3808 11.8078 29.3808 10.815V9.46672C29.3808 9.21851 29.1795 9.01729 28.9313 9.01729H22.6394C22.3932 9.01729 22.1936 9.2169 22.1936 9.46312V10.815C22.1936 11.8078 21.3887 12.6127 20.3959 12.6127C19.403 12.6127 18.5982 11.8078 18.5982 10.815V9.46672C18.5982 9.21851 18.397 9.01729 18.1488 9.01729H11.8568C11.6096 9.01729 11.4092 9.2177 11.4092 9.46492V10.815C11.4092 11.8078 10.6044 12.6127 9.61152 12.6127C8.61868 12.6127 7.81382 11.8078 7.81382 10.815V9.46672C7.81382 9.21851 7.61261 9.01729 7.3644 9.01729H4.66786C4.41965 9.01729 4.21843 9.21851 4.21843 9.46672V40.0275C4.21843 40.2757 4.41965 40.4769 4.66786 40.4769H36.1275Z" fill="#55C462"/>
</svg>
