<svg width="17" height="18" viewBox="0 0 17 18" fill="none" xmlns="http://www.w3.org/2000/svg">
<g opacity="0.5">
<path d="M6.3721 0.35459C6.99186 0.777838 7.15814 1.36736 7.14302 2.09293C7.09767 3.45337 7.1279 4.81381 7.1279 6.17425C7.1279 7.15679 6.67442 7.59516 5.69188 7.61027C4.43725 7.62539 3.16751 7.58004 1.91288 7.62538C1.1722 7.65562 0.582673 7.47423 0.174541 6.85447C0.174541 4.81381 0.189656 2.77315 0.159424 0.73249C0.159424 0.415054 0.219889 0.339478 0.552441 0.339478C2.50241 0.36971 4.43725 0.35459 6.3721 0.35459ZM5.31398 3.98243C5.31398 3.55918 5.29887 3.12082 5.31398 2.69757C5.3291 2.33479 5.25352 2.15339 4.83027 2.16851C4.02912 2.19874 3.21286 2.18363 2.41171 2.16851C2.09427 2.16851 1.95823 2.27433 1.97334 2.60688C1.98846 3.18129 1.97334 3.77081 1.97334 4.34522C1.97334 5.81147 1.97334 5.81146 3.46983 5.81146C5.31398 5.79635 5.31398 5.79635 5.31398 3.98243Z" fill="black"/>
<path d="M0.174738 15.4707C5.6165 15.4707 11.0583 15.4707 16.5 15.4707C16.5 16.0753 16.5 16.68 16.5 17.2846C15.8954 17.2846 15.2907 17.2846 14.6861 17.2846C10.0304 17.2846 5.35953 17.2695 0.703798 17.2997C0.250318 17.2997 0.114273 17.209 0.159621 16.7556C0.220085 16.3323 0.174738 15.9091 0.174738 15.4707Z" fill="black"/>
<path d="M0.137629 10.6184C5.57939 10.6184 11.0211 10.6184 16.4629 10.6184C16.4629 11.223 16.4629 11.8277 16.4629 12.4323C15.8583 12.4323 15.2536 12.4323 14.649 12.4323C9.99326 12.4323 5.32242 12.4172 0.666689 12.4474C0.213209 12.4474 0.0771639 12.3567 0.122512 11.9033C0.182976 11.48 0.137629 11.0568 0.137629 10.6184Z" fill="black"/>
<path d="M16.4997 2.77322C14.5195 2.77322 12.5393 2.7581 10.5591 2.78833C10.015 2.80345 9.758 2.68252 9.84869 2.093C9.87892 1.89649 9.87892 1.68487 9.84869 1.48836C9.78823 1.03488 9.99985 0.944184 10.408 0.9593C12.4335 0.974416 14.4742 0.9593 16.4997 0.9593C16.4997 1.56394 16.4997 2.16858 16.4997 2.77322Z" fill="black"/>
<path d="M16.4997 7.61026C14.5195 7.61026 12.5393 7.59514 10.5591 7.62537C10.015 7.64048 9.758 7.51956 9.84869 6.93004C9.87892 6.73353 9.87892 6.5219 9.84869 6.3254C9.78823 5.87192 9.99985 5.78122 10.408 5.79634C12.4335 5.81145 14.4742 5.79634 16.4997 5.79634C16.4997 6.40098 16.4997 7.00562 16.4997 7.61026Z" fill="black"/>
</g>
</svg>
