<svg width="38" height="38" viewBox="0 0 38 38" fill="none" xmlns="http://www.w3.org/2000/svg">
<path fill-rule="evenodd" clip-rule="evenodd" d="M32.41 0.882735C33.6479 -0.298802 35.5959 -0.298802 36.8339 0.882735C38.0552 2.10447 38.0552 4.0849 36.8339 5.30663L35.1741 6.96638C34.8687 7.27172 34.3736 7.27172 34.0682 6.96638L30.7502 3.64845C30.4449 3.34302 30.4449 2.84791 30.7502 2.54248L32.41 0.882735ZM29.9274 19.5138C29.9274 18.6498 30.6278 17.9495 31.4917 17.9495C32.3557 17.9495 33.056 18.6498 33.056 19.5138V32.8105C33.056 35.4024 30.9549 37.5035 28.3631 37.5035H4.89828C2.30643 37.5035 0.205322 35.4024 0.205322 32.8105V6.21707C0.205322 3.62522 2.30643 1.52411 4.89828 1.52411H20.5415C21.4054 1.52411 22.1058 2.22448 22.1058 3.08843C22.1058 3.95238 21.4054 4.65275 20.5415 4.65275H4.89828C4.03433 4.65275 3.33396 5.35312 3.33396 6.21707V32.8105C3.33396 33.6745 4.03433 34.3748 4.89828 34.3748H28.3631C29.227 34.3748 29.9274 33.6745 29.9274 32.8105V19.5138ZM17.9744 16.4258L21.2924 19.7437C21.5978 20.0491 22.0929 20.0491 22.3983 19.7437L32.3537 9.78841C32.5008 9.64167 32.5835 9.44243 32.5835 9.23464C32.5835 9.02686 32.5008 8.82761 32.3537 8.68087L29.0342 5.36138C28.7234 5.06915 28.239 5.06915 27.9282 5.36138L17.9744 15.3198C17.6691 15.6253 17.6691 16.1204 17.9744 16.4258ZM15.8251 18.023C15.9259 17.7822 16.1389 17.6067 16.3945 17.5537C16.6507 17.5029 16.9153 17.5833 17.1 17.768L19.9486 20.6119C20.1347 20.7979 20.2148 21.0649 20.1619 21.3225C20.109 21.5802 19.9301 21.794 19.6858 21.8916L14.9459 23.7875C14.6545 23.8919 14.3292 23.8249 14.1027 23.6139C13.8815 23.3928 13.8132 23.0612 13.9291 22.7707L15.8251 18.023Z" fill="#7A52E9"/>
</svg>
