<svg width="40" height="40" viewBox="0 0 40 40" fill="none" xmlns="http://www.w3.org/2000/svg">
<path fill-rule="evenodd" clip-rule="evenodd" d="M23.9841 39.0723H2.45168C1.57079 39.0723 0.856689 38.3582 0.856689 37.4773C0.856689 36.5964 1.57079 35.8823 2.45168 35.8823C4.21346 35.8823 5.64167 34.4541 5.64167 32.6924V7.17245C5.64167 3.64889 8.49808 0.79248 12.0216 0.79248H33.6673C36.8111 0.796873 39.3586 3.34436 39.363 6.4882V7.17245C39.363 8.05335 38.6489 8.76745 37.768 8.76745H31.1616C30.7211 8.76745 30.3641 9.1245 30.3641 9.56495V32.6924C30.3641 34.3844 29.6919 36.0072 28.4954 37.2037C27.2989 38.4002 25.6762 39.0723 23.9841 39.0723ZM8.83166 32.6924C8.83269 33.5984 8.63962 34.4941 8.26543 35.3193C8.20973 35.4425 8.21865 35.5855 8.29178 35.6993C8.36491 35.813 8.49069 35.8819 8.6259 35.8823H23.9841C25.7459 35.8823 27.1741 34.4541 27.1741 32.6924V7.17246C27.1732 6.26644 27.3663 5.37073 27.7403 4.5455C27.7961 4.42204 27.7854 4.27869 27.7119 4.16487C27.6384 4.05106 27.5121 3.98236 27.3766 3.98247H12.0216C10.2599 3.98247 8.83166 5.41067 8.83166 7.17246V32.6924ZM12.8191 12.3562H23.1866C23.8473 12.3562 24.3828 11.8206 24.3828 11.1599C24.3828 10.4993 23.8473 9.96369 23.1866 9.96369H12.8191C12.1585 9.96369 11.6229 10.4993 11.6229 11.1599C11.6229 11.8206 12.1585 12.3562 12.8191 12.3562ZM23.1866 18.7362H12.8191C12.1585 18.7362 11.6229 18.2006 11.6229 17.5399C11.6229 16.8792 12.1585 16.3437 12.8191 16.3437H23.1866C23.8473 16.3437 24.3828 16.8792 24.3828 17.5399C24.3828 18.2006 23.8473 18.7362 23.1866 18.7362ZM12.8191 25.1161H23.1866C23.8473 25.1161 24.3828 24.5806 24.3828 23.9199C24.3828 23.2592 23.8473 22.7236 23.1866 22.7236H12.8191C12.1585 22.7236 11.6229 23.2592 11.6229 23.9199C11.6229 24.5806 12.1585 25.1161 12.8191 25.1161ZM19.1991 31.4961H12.8191C12.1585 31.4961 11.6229 30.9605 11.6229 30.2999C11.6229 29.6392 12.1585 29.1036 12.8191 29.1036H19.1991C19.8598 29.1036 20.3954 29.6392 20.3954 30.2999C20.3954 30.9605 19.8598 31.4961 19.1991 31.4961Z" fill="#E4A70C"/>
</svg>
